<?xml version="1.0" encoding="UTF-8"?>
<svg version="1.1" xmlns="http://www.w3.org/2000/svg" width="180" height="126">
<path d="M0 0 C12.54 0 25.08 0 38 0 C40.145 3.733125 42.29 7.46625 44.5 11.3125 C50.82218486 22.29258013 57.23941068 33.21289221 63.71875 44.10083008 C66.85764134 49.37613333 69.97995155 54.6556611 73 60 C75.52323334 57.67574647 77.24638438 55.21437892 79.046875 52.30078125 C79.63734619 51.35017822 80.22781738 50.3995752 80.83618164 49.42016602 C81.4677417 48.39463623 82.09930176 47.36910645 82.75 46.3125 C84.09758991 44.14058384 85.44524819 41.96871009 86.79296875 39.796875 C87.48567871 38.67732422 88.17838867 37.55777344 88.89208984 36.40429688 C92.26835744 30.948389 95.66532725 25.50540611 99.0625 20.0625 C99.66868164 19.08772705 100.27486328 18.1129541 100.89941406 17.10864258 C102.05103256 15.26193322 103.22067637 13.42631243 104.41015625 11.60375977 C106.0526168 9.05522918 106.0526168 9.05522918 107.13671875 6.33178711 C108.4955971 3.46582493 109.44695259 1.90950251 112 0 C117.99370833 -1.11818548 123.810189 -0.84858731 129.875 -0.5625 C131.53374606 -0.5173233 133.19260971 -0.47626421 134.8515625 -0.43945312 C138.9039548 -0.34057961 142.95068594 -0.18550108 147 0 C145.82116255 3.8069193 144.51134596 7.14394262 142.453125 10.5546875 C141.94531494 11.40401855 141.43750488 12.25334961 140.91430664 13.12841797 C140.36508545 14.03479004 139.81586426 14.94116211 139.25 15.875 C138.06570287 17.85374586 136.88213392 19.83292768 135.69921875 21.8125 C135.08739746 22.8334375 134.47557617 23.854375 133.84521484 24.90625 C130.88173141 29.87492717 127.97176452 34.87444523 125.0625 39.875 C123.88674218 41.89324281 122.7109608 43.91147191 121.53515625 45.9296875 C120.65947998 47.43354004 120.65947998 47.43354004 119.76611328 48.96777344 C116.84671977 53.98005813 113.92316314 58.98991316 111 64 C109.83331309 65.99998819 108.66664643 67.9999882 107.5 70 C100.5 82 100.5 82 98.74682617 85.00537109 C97.59065783 86.98742014 96.4345694 88.96951581 95.27856445 90.95166016 C92.20195771 96.2267126 89.12360524 101.50073726 86.04296875 106.7734375 C85.07520508 108.43052734 85.07520508 108.43052734 84.08789062 110.12109375 C82.84360478 112.25159758 81.59883178 114.38181699 80.35351562 116.51171875 C79.79728516 117.46433594 79.24105469 118.41695313 78.66796875 119.3984375 C78.17578857 120.24067871 77.6836084 121.08291992 77.17651367 121.95068359 C76.41355634 123.27964476 75.68530893 124.62938213 75 126 C74.01 126 73.02 126 72 126 C71.68998047 125.44465576 71.37996094 124.88931152 71.06054688 124.31713867 C63.90904197 111.53005011 56.58688826 98.85880601 49.09033203 86.27099609 C43.819923 77.41141962 38.64586545 68.49986529 33.5065918 59.5637207 C29.34043437 52.32025674 25.15072826 45.09118604 20.9375 37.875 C20.37385742 36.90844482 19.81021484 35.94188965 19.22949219 34.94604492 C16.16919487 29.70150627 13.09650593 24.46454915 10.01171875 19.234375 C9.36146729 18.12852051 8.71121582 17.02266602 8.04125977 15.88330078 C6.78624184 13.74933859 5.5277434 11.61741863 4.26538086 9.48779297 C3.42632202 8.05910889 3.42632202 8.05910889 2.5703125 6.6015625 C2.07289551 5.75932129 1.57547852 4.91708008 1.06298828 4.04931641 C0 2 0 2 0 0 Z " fill="#1A1C1F" transform="translate(16,0)"/>
<path d="M0 0 C3.94024526 1.48535047 5.21747251 3.53451372 7.234375 7.15625 C7.80800781 8.17847656 8.38164062 9.20070313 8.97265625 10.25390625 C9.55917969 11.32511719 10.14570313 12.39632812 10.75 13.5 C11.35199219 14.57121094 11.95398438 15.64242187 12.57421875 16.74609375 C17 24.70447137 17 24.70447137 17 27 C6.44 27 -4.12 27 -15 27 C-13.824375 24.958125 -12.64875 22.91625 -11.4375 20.8125 C-7.49701743 13.94176843 -3.71756539 6.99366989 0 0 Z " fill="#09AC94" transform="translate(163,66)"/>
<path d="M0 0 C0.66 0 1.32 0 2 0 C7 9 12 18 17 27 C6.77 27 -3.46 27 -14 27 C-13.16380212 21.98281273 -12.78065725 20.09509631 -10.3125 16.07421875 C-9.77882813 15.19572266 -9.24515625 14.31722656 -8.6953125 13.41210938 C-8.13585937 12.51298828 -7.57640625 11.61386719 -7 10.6875 C-6.16082031 9.30981445 -6.16082031 9.30981445 -5.3046875 7.90429688 C-1.20473214 1.20473214 -1.20473214 1.20473214 0 0 Z " fill="#09AC94" transform="translate(14,66)"/>
</svg>
