<?xml version="1.0" encoding="UTF-8"?>
<svg version="1.1" xmlns="http://www.w3.org/2000/svg" width="512" height="512">
<path d="M0 0 C1.65686813 -0.00706871 3.3137298 -0.01581771 4.97058105 -0.02610779 C9.44596539 -0.04850653 13.92099447 -0.0456842 18.39641333 -0.03678632 C22.1436831 -0.03165588 25.89088732 -0.03898573 29.63815033 -0.04625839 C38.48441175 -0.06322768 47.33050055 -0.05972214 56.17675781 -0.04296875 C65.27799766 -0.02605441 74.37875762 -0.04187923 83.47994506 -0.07419163 C91.31724796 -0.10095421 99.15440209 -0.10814546 106.99174607 -0.09967655 C111.66236978 -0.09476624 116.33270502 -0.09685946 121.00329208 -0.11746407 C125.3981364 -0.13592606 129.79229498 -0.12973532 134.18710327 -0.10526466 C135.79140004 -0.10028971 137.39575002 -0.10365943 139.00000381 -0.11641312 C151.88835928 -0.2106959 162.80820557 1.92110496 172.47314453 11.14672852 C177.75568634 17.52544995 181.5884218 25.48014274 181.56323242 33.84301758 C181.56315689 34.68358704 181.56308136 35.52415649 181.56300354 36.39019775 C181.55784225 37.28825134 181.55268097 38.18630493 181.54736328 39.11157227 C181.54524086 40.50143341 181.54524086 40.50143341 181.54307556 41.91937256 C181.53748527 44.87409719 181.52493453 47.8287456 181.51220703 50.78344727 C181.50719078 52.7886545 181.50262809 54.79386293 181.49853516 56.79907227 C181.48751902 61.71055989 181.47026103 66.62199066 181.44970703 71.53344727 C182.53805847 71.52900604 183.62640991 71.52456482 184.7477417 71.51998901 C195.04529186 71.47930208 205.34282553 71.44939557 215.64043808 71.42982292 C220.93350344 71.41942192 226.22650347 71.40533054 231.51953125 71.38256836 C236.63535446 71.36070794 241.75111516 71.34885099 246.86698151 71.34369278 C248.81083407 71.34002059 250.75468354 71.33285026 252.69850922 71.32198715 C274.98590327 71.20247926 292.24728819 74.10171863 309.19970703 89.84594727 C318.34258088 99.51502968 324.55750941 112.41011215 324.58392811 125.82881927 C324.58838595 126.8827429 324.5928438 127.93666652 324.59743673 129.02252722 C324.59716018 130.74997915 324.59716018 130.74997915 324.59687805 132.5123291 C324.60055474 133.74066168 324.60423143 134.96899426 324.60801953 136.23454905 C324.61713009 139.64144309 324.62175249 143.04828903 324.62440884 146.45519066 C324.628319 150.13092163 324.63789689 153.80663874 324.6466217 157.48236084 C324.66636683 166.3584262 324.6764502 175.23449266 324.68534949 184.11057448 C324.68973591 188.29391666 324.69510183 192.47725757 324.70033836 196.66059875 C324.71734928 210.57315559 324.73184222 224.48571165 324.7390871 238.39827728 C324.7409969 242.00713604 324.74291724 245.61599479 324.74487305 249.22485352 C324.74535679 250.12178163 324.74584053 251.01870975 324.74633893 251.94281751 C324.75463464 266.46404173 324.7799644 280.98518346 324.81245372 295.50637168 C324.84556175 310.42614812 324.86353928 325.34588269 324.86673135 340.26569605 C324.86889306 348.63805413 324.87759195 357.01029194 324.90319252 365.38261414 C324.92495079 372.51470688 324.93292486 379.64665012 324.92322574 386.77877229 C324.9186957 390.41386279 324.92049082 394.04864515 324.93998718 397.68369293 C324.9609981 401.63548668 324.95058632 405.58686126 324.93745422 409.53869629 C324.95390809 411.23937956 324.95390809 411.23937956 324.97069436 412.97442007 C324.84024801 429.31326303 318.31741487 443.27864142 307.16064453 455.02172852 C292.99830338 468.14332126 277.26390186 470.84064767 258.73112488 470.79414368 C257.02424064 470.79716662 255.31735776 470.80105681 253.61047727 470.80573624 C248.93370377 470.81600668 244.25700702 470.81383684 239.58022726 470.80955565 C234.5310206 470.80708669 229.48183234 470.81610473 224.43263245 470.82359314 C214.54576298 470.83633759 204.65892068 470.83813413 194.77204438 470.83579288 C186.73460094 470.83400921 178.69716574 470.8357604 170.65972328 470.84001732 C168.94325008 470.8409101 168.94325008 470.8409101 167.19210065 470.84182092 C164.86734523 470.84303269 162.54258981 470.84424682 160.21783439 470.8454633 C138.41960072 470.85633794 116.62138253 470.85417675 94.82314799 470.84807845 C74.88903984 470.84290983 54.95498057 470.85416345 35.02088209 470.87317667 C14.5447099 470.89255695 -5.93143918 470.90081071 -26.40762061 470.89705342 C-37.90026596 470.89514161 -49.39286972 470.89762699 -60.88550758 470.91176796 C-70.66975674 470.92368516 -80.4539387 470.92508283 -90.23818878 470.91297779 C-95.22801321 470.90709142 -100.21771475 470.90598304 -105.20753098 470.91798019 C-109.78027346 470.92884658 -114.35279055 470.9257266 -118.92552253 470.91171851 C-120.57485034 470.90907367 -122.22419586 470.9114314 -123.87350629 470.91945437 C-142.87021161 471.00540802 -158.0787156 466.70122956 -172.11279297 453.19750977 C-180.93920481 443.55069426 -187.65841663 430.49359248 -187.68451405 417.23807526 C-187.68897189 416.18415164 -187.69342973 415.13022801 -187.69802266 414.04436731 C-187.6978383 412.89273269 -187.69765394 411.74109807 -187.69746399 410.55456543 C-187.70114068 409.32623285 -187.70481737 408.09790027 -187.70860547 406.83234549 C-187.71771603 403.42545144 -187.72233843 400.01860551 -187.72499478 396.61170387 C-187.72890494 392.9359729 -187.73848283 389.26025579 -187.74720764 385.58453369 C-187.76695277 376.70846833 -187.77703614 367.83240187 -187.78593543 358.95632005 C-187.79032185 354.77297787 -187.79568777 350.58963696 -187.8009243 346.40629578 C-187.81793522 332.49373894 -187.83242816 318.58118288 -187.83967304 304.66861725 C-187.84158283 301.05975849 -187.84350318 297.45089975 -187.84545898 293.84204102 C-187.84618459 292.49664884 -187.84618459 292.49664884 -187.84692486 291.12407702 C-187.85522057 276.6028528 -187.88055034 262.08171107 -187.91303966 247.56052285 C-187.94614769 232.64074641 -187.96412521 217.72101184 -187.96731728 202.80119848 C-187.969479 194.4288404 -187.97817789 186.0566026 -188.00377846 177.6842804 C-188.02553673 170.55218765 -188.03351079 163.42024441 -188.02381168 156.28812224 C-188.01928164 152.65303175 -188.02107676 149.01824938 -188.04057312 145.3832016 C-188.06158404 141.43140785 -188.05117225 137.48003327 -188.03804016 133.52819824 C-188.04900941 132.39440939 -188.05997865 131.26062055 -188.0712803 130.09247446 C-187.94139075 113.82337208 -181.71696854 99.81511859 -170.44091797 88.29907227 C-154.05206288 72.25845314 -134.55846567 71.21715009 -112.90966797 71.33813477 C-110.93141829 71.34187194 -108.95316675 71.34471558 -106.97491455 71.34671021 C-101.80632277 71.35429124 -96.63784609 71.3738913 -91.46929932 71.39611816 C-86.17990678 71.41669668 -80.89049538 71.42573743 -75.60107422 71.43579102 C-65.25076365 71.45714317 -54.90053794 71.49121114 -44.55029297 71.53344727 C-44.57124023 70.31874756 -44.5921875 69.10404785 -44.61376953 67.85253906 C-44.68675727 63.29960145 -44.73230434 58.7467144 -44.77001953 54.19335938 C-44.79000215 52.23135653 -44.81719781 50.26941222 -44.85205078 48.30761719 C-45.09933335 34.01977559 -44.96023659 21.497624 -34.55029297 10.53344727 C-24.3323413 1.04220337 -13.41739964 -0.06048756 0 0 Z M15.44970703 24.53344727 C15.44970703 32.12344727 15.44970703 39.71344727 15.44970703 47.53344727 C62.30970703 47.53344727 109.16970703 47.53344727 157.44970703 47.53344727 C157.95840831 37.02418605 157.95840831 37.02418605 154.44970703 28.53344727 C150.63971267 24.96157755 147.17056286 24.40835623 142.07771301 24.41319275 C140.40552452 24.41113075 140.40552452 24.41113075 138.69955444 24.4090271 C137.47604279 24.41262238 136.25253113 24.41621765 134.99194336 24.41992188 C133.70403397 24.41977585 132.41612457 24.41962982 131.08918762 24.41947937 C127.55640617 24.41919214 124.02365859 24.42507695 120.49088502 24.43205333 C116.79931958 24.43829914 113.10775338 24.43889164 109.41618347 24.44007874 C102.42516394 24.44318842 95.43416002 24.45139694 88.44314736 24.46142823 C80.48434383 24.4726006 72.52553956 24.47810265 64.56673014 24.48312366 C48.1943797 24.49357984 31.82204597 24.51137342 15.44970703 24.53344727 Z M-128.55029297 96.53344727 C-128.55029297 122.93344727 -128.55029297 149.33344727 -128.55029297 176.53344727 C13.01970703 176.53344727 154.58970703 176.53344727 300.44970703 176.53344727 C304.16341496 138.75756563 304.16341496 138.75756563 289.68017578 105.74438477 C282.33643946 99.248618 275.26353614 96.28114247 265.32580662 96.28735161 C264.29813448 96.28389008 264.29813448 96.28389008 263.24970129 96.28035861 C260.96117316 96.27507803 258.67292823 96.28402636 256.38441467 96.29293823 C254.72432767 96.29206577 253.06424094 96.29031403 251.40415567 96.2877599 C246.84790468 96.28329042 242.29174781 96.29128459 237.7355088 96.30131602 C232.8201122 96.30995395 227.9047209 96.30703012 222.98931885 96.30551147 C214.47487697 96.30446284 205.96046574 96.3107372 197.44603157 96.32198715 C185.13559677 96.3382421 172.82517679 96.34345016 160.51473241 96.34596314 C140.54179563 96.35034024 120.56887518 96.36364978 100.59594727 96.38256836 C81.19425539 96.40092674 61.79256795 96.41508346 42.39086914 96.42358398 C41.19492298 96.42410943 39.99897682 96.42463488 38.76678986 96.42517625 C32.76707176 96.42778633 26.76735362 96.43031374 20.76763546 96.43280005 C-29.00502186 96.45353305 -78.77764896 96.49040309 -128.55029297 96.53344727 Z M-128.55029297 201.53344727 C-128.55029297 221.00344727 -128.55029297 240.47344727 -128.55029297 260.53344727 C13.01970703 260.53344727 154.58970703 260.53344727 300.44970703 260.53344727 C300.44970703 241.06344727 300.44970703 221.59344727 300.44970703 201.53344727 C158.87970703 201.53344727 17.30970703 201.53344727 -128.55029297 201.53344727 Z M-128.55029297 284.53344727 C-136.35335619 345.04839445 -136.35335619 345.04839445 -115.30029297 409.34594727 C-103.1189022 420.75197313 -90.77224497 422.99234506 -74.57980347 422.89421082 C-72.96662403 422.89552063 -71.35344521 422.89815027 -69.74026978 422.90197831 C-65.32756844 422.90866076 -60.91508709 422.89672161 -56.50241375 422.88164413 C-51.73635577 422.86865558 -46.9703096 422.87307522 -42.20423889 422.87535095 C-33.95338898 422.87692191 -25.70261039 422.8675313 -17.45177841 422.85063744 C-5.52255839 422.82622787 6.40662724 422.81844016 18.33586954 422.81467346 C37.69154324 422.80811205 57.04717895 422.7881593 76.40283203 422.75976562 C95.20198375 422.73221703 114.00112514 422.71098736 132.80029297 422.69824219 C134.53926404 422.69705993 134.53926404 422.69705993 136.31336583 422.69585379 C142.12946314 422.6919386 147.94556052 422.6881475 153.76165795 422.68441808 C201.9910339 422.65333184 250.22036861 422.60050448 298.44970703 422.53344727 C312.99771186 378.88943278 300.44970703 330.53827793 300.44970703 284.53344727 C158.87970703 284.53344727 17.30970703 284.53344727 -128.55029297 284.53344727 Z " fill="#0635C9" transform="translate(187.55029296875,20.466552734375)"/>
<path d="M0 0 C0 26.4 0 52.8 0 80 C141.57 80 283.14 80 429 80 C429 88.25 429 96.5 429 105 C287.43 105 145.86 105 0 105 C0 124.47 0 143.94 0 164 C141.57 164 283.14 164 429 164 C429 171.92 429 179.84 429 188 C287.43 188 145.86 188 0 188 C-7.05312495 246.79290695 -7.05312495 246.79290695 13.75 312.3125 C25.71026481 323.40871526 38.1872366 325.4529882 53.9704895 325.39872742 C55.58367218 325.40417301 57.19685087 325.41092711 58.81002319 325.41886932 C63.22268882 325.43683806 67.63518566 325.43634452 72.04787922 325.43273985 C76.81396496 325.43211467 81.57999473 325.44874853 86.34605408 325.46325684 C94.59687848 325.48602467 102.84766072 325.49792482 111.09851456 325.50238609 C123.02776617 325.50885209 134.95694162 325.53179743 146.8861625 325.55872939 C166.24180595 325.60198165 185.59744618 325.63195733 204.953125 325.65356445 C223.75229469 325.67457881 242.55143813 325.70185792 261.35058594 325.73754883 C262.50989998 325.73974765 263.66921403 325.74194648 264.8636588 325.74421193 C270.67975637 325.7552817 276.4958537 325.76647449 282.31195092 325.77772844 C330.54127739 325.87089145 378.77061874 325.94249968 427 326 C425.82626942 332.94848503 422.09366613 337.27904114 417 342 C416.278125 342.680625 415.55625 343.36125 414.8125 344.0625 C405.50273852 350.47589124 396.15971499 350.57653156 385.27505493 350.52139282 C383.57967691 350.52744034 381.88430435 350.53522156 380.18894136 350.54457796 C375.54856057 350.56509799 370.90848953 350.56078475 366.26808357 350.55221677 C361.25636101 350.54727501 356.24471233 350.56531956 351.23301697 350.58029175 C341.42179657 350.60576947 331.61068569 350.6093752 321.79943778 350.60469122 C313.8235078 350.60112287 305.84761103 350.60462844 297.87168503 350.61314011 C296.16790418 350.61492567 296.16790418 350.61492567 294.42970353 350.61674731 C292.12210064 350.61917085 289.81449775 350.62159912 287.50689487 350.62403207 C265.8741239 350.64577674 244.24141531 350.64146099 222.60864083 350.62926237 C202.82650051 350.61892378 183.04455714 350.64143661 163.26245578 350.67945881 C142.93991958 350.71821972 122.61747656 350.73472695 102.29490316 350.72721231 C90.88941361 350.72338894 79.48409172 350.7283569 68.07863235 350.75664139 C58.36936599 350.78047624 48.66037048 350.78327087 38.95110036 350.75906105 C33.99961661 350.74728862 29.04862818 350.7450694 24.09717751 350.76906586 C19.5593947 350.79080158 15.02252023 350.78455782 10.48477976 350.75654249 C8.84826807 350.75125333 7.21168499 350.75596711 5.57524343 350.77201422 C-7.02568599 350.88694823 -16.16313327 348.29422692 -26 340 C-36.57307339 327.88450179 -36.57880178 313.25186056 -36.4699707 298.11743164 C-36.47048063 296.13372177 -36.47274357 294.15001171 -36.47660828 292.16630554 C-36.48201202 286.78997235 -36.46261742 281.41398637 -36.43850732 276.0377152 C-36.4169616 270.31938052 -36.41779309 264.60104398 -36.41581726 258.88267517 C-36.40936585 249.21282159 -36.38817023 239.54309416 -36.35668945 229.87329102 C-36.31330326 216.53497027 -36.29707854 203.19672532 -36.28631997 189.85834432 C-36.26411736 164.44676095 -36.18033685 139.03573673 -36.04851854 113.62449253 C-36.01588577 107.31815774 -35.98723283 101.01182443 -35.96221346 94.70545501 C-35.92093845 84.37359448 -35.85848716 74.04216541 -35.77010155 63.7105999 C-35.74205061 60.3578607 -35.72273741 57.00525875 -35.71151161 53.65242195 C-35.69823353 49.81531461 -35.66635939 45.97882758 -35.61944795 42.14198804 C-35.59922509 40.12047502 -35.59802925 38.09879882 -35.59765434 36.07718468 C-35.42855812 25.17152767 -32.40477857 17.06865527 -25 9 C-16.98887796 1.78835857 -11.09054455 0 0 0 Z " fill="#1AE4BE" transform="translate(59,117)"/>
<path d="M0 0 C11.55 0 23.1 0 35 0 C35.01458252 2.87557617 35.02916504 5.75115234 35.04418945 8.71386719 C35.09468423 18.24933192 35.1613052 27.7846359 35.23571491 37.31994247 C35.28030912 43.09723242 35.31958917 48.87445363 35.34643555 54.65185547 C35.37257798 60.23465372 35.4130571 65.81718586 35.46318626 71.39981842 C35.47978125 73.5222567 35.49134114 75.64474092 35.49761391 77.7672348 C35.55370436 95.0126336 36.27836157 111.03461424 48.75 124.3125 C60.71026481 135.40871526 73.1872366 137.4529882 88.9704895 137.39872742 C90.58367218 137.40417301 92.19685087 137.41092711 93.81002319 137.41886932 C98.22268882 137.43683806 102.63518566 137.43634452 107.04787922 137.43273985 C111.81396496 137.43211467 116.57999473 137.44874853 121.34605408 137.46325684 C129.59687848 137.48602467 137.84766072 137.49792482 146.09851456 137.50238609 C158.02776617 137.50885209 169.95694162 137.53179743 181.8861625 137.55872939 C201.24180595 137.60198165 220.59744618 137.63195733 239.953125 137.65356445 C258.75229469 137.67457881 277.55143813 137.70185792 296.35058594 137.73754883 C297.50989998 137.73974765 298.66921403 137.74194648 299.8636588 137.74421193 C305.67975637 137.7552817 311.4958537 137.76647449 317.31195092 137.77772844 C365.54127739 137.87089145 413.77061874 137.94249968 462 138 C460.82626942 144.94848503 457.09366613 149.27904114 452 154 C451.278125 154.680625 450.55625 155.36125 449.8125 156.0625 C440.50273852 162.47589124 431.15971499 162.57653156 420.27505493 162.52139282 C418.57967691 162.52744034 416.88430435 162.53522156 415.18894136 162.54457796 C410.54856057 162.56509799 405.90848953 162.56078475 401.26808357 162.55221677 C396.25636101 162.54727501 391.24471233 162.56531956 386.23301697 162.58029175 C376.42179657 162.60576947 366.61068569 162.6093752 356.79943778 162.60469122 C348.8235078 162.60112287 340.84761103 162.60462844 332.87168503 162.61314011 C331.16790418 162.61492567 331.16790418 162.61492567 329.42970353 162.61674731 C327.12210064 162.61917085 324.81449775 162.62159912 322.50689487 162.62403207 C300.8741239 162.64577674 279.24141531 162.64146099 257.60864083 162.62926237 C237.82650051 162.61892378 218.04455714 162.64143661 198.26245578 162.67945881 C177.93991958 162.71821972 157.61747656 162.73472695 137.29490316 162.72721231 C125.88941361 162.72338894 114.48409172 162.7283569 103.07863235 162.75664139 C93.36936599 162.78047624 83.66037048 162.78327087 73.95110036 162.75906105 C68.99961661 162.74728862 64.04862818 162.7450694 59.09717751 162.76906586 C54.5593947 162.79080158 50.02252023 162.78455782 45.48477976 162.75654249 C43.84826807 162.75125333 42.21168499 162.75596711 40.57524343 162.77201422 C27.99078232 162.88679802 18.81149564 160.31217811 9 152 C7.3046875 149.921875 7.3046875 149.921875 5.875 147.75 C5.39804687 147.04359375 4.92109375 146.3371875 4.4296875 145.609375 C-0.01443297 137.49824803 -0.42045908 130.8355192 -0.34057617 121.69921875 C-0.34101425 120.38131851 -0.34145233 119.06341827 -0.34190369 117.70558167 C-0.34276015 114.11307004 -0.32519156 110.52086236 -0.30418181 106.92842102 C-0.28535633 103.16616378 -0.28365997 99.40389864 -0.28010559 95.64160156 C-0.2708023 88.52673337 -0.24621193 81.41200439 -0.21605712 74.29719734 C-0.1824595 66.19319537 -0.16601366 58.08918656 -0.15097082 49.98513222 C-0.11966067 33.32332726 -0.06467027 16.66171394 0 0 Z " fill="#D3E0F3" transform="translate(24,305)"/>
<path d="M0 0 C1.29873047 0.00644531 2.59746094 0.01289062 3.93554688 0.01953125 C5.30729432 0.0362419 6.67903911 0.05317179 8.05078125 0.0703125 C9.43423843 0.08034576 10.81770252 0.08947101 12.20117188 0.09765625 C15.58861582 0.12126213 18.9759702 0.15713367 22.36328125 0.1953125 C22.36328125 7.7853125 22.36328125 15.3753125 22.36328125 23.1953125 C69.22328125 23.1953125 116.08328125 23.1953125 164.36328125 23.1953125 C164.36328125 31.4453125 164.36328125 39.6953125 164.36328125 48.1953125 C105.62328125 48.1953125 46.88328125 48.1953125 -13.63671875 48.1953125 C-13.63671875 7.1953125 -13.63671875 7.1953125 -9.63671875 2.1953125 C-6.00365817 -0.22672788 -4.31852852 -0.03771641 0 0 Z " fill="#D2DFF3" transform="translate(180.63671875,44.8046875)"/>
<path d="M0 0 C0 26.73 0 53.46 0 81 C-11.55 81 -23.1 81 -35 81 C-35.09205457 73.33134314 -35.17163142 65.66461967 -35.21972656 57.99584961 C-35.23978535 55.38966357 -35.26703911 52.78352221 -35.30175781 50.17749023 C-35.3505263 46.42159974 -35.37302717 42.6663067 -35.390625 38.91015625 C-35.41127014 37.75354996 -35.43191528 36.59694366 -35.45318604 35.4052887 C-35.45609786 24.79919573 -32.17742981 16.82092352 -25 9 C-16.98887796 1.78835857 -11.09054455 0 0 0 Z " fill="#D2E0F3" transform="translate(59,117)"/>
<path d="M0 0 C11.55 0 23.1 0 35 0 C35 19.8 35 39.6 35 60 C23.45 60 11.9 60 0 60 C0 40.2 0 20.4 0 0 Z " fill="#D3E1F3" transform="translate(24,221)"/>
</svg>
