<?xml version="1.0" encoding="UTF-8"?>
<svg version="1.1" xmlns="http://www.w3.org/2000/svg" width="512" height="512">
<path d="M0 0 C5.29922222 3.53583361 10.61527706 7.04561112 15.93727112 10.54705811 C17.2128614 11.3863813 17.2128614 11.3863813 18.51422119 12.24266052 C20.29673267 13.41539822 22.0792805 14.58808067 23.86186218 15.76071167 C36.55378074 24.11063972 49.23822482 32.47090165 61.87086487 40.91033936 C63.26833199 41.84375153 63.26833199 41.84375153 64.69403076 42.79602051 C69.11597824 45.75072077 73.53561847 48.70880115 77.9521637 51.67156982 C85.84902379 56.9598889 93.7822508 62.16781404 101.83570862 67.21502686 C110.73542734 72.79398842 119.48247276 78.58081937 128.18092346 84.46795654 C130.61176269 86.11166216 133.04780895 87.74745332 135.48414612 89.38299561 C137.06128526 90.44763147 138.63811994 91.51271853 140.21461487 92.57830811 C140.92821167 93.05654022 141.64180847 93.53477234 142.37702942 94.02749634 C154.62282719 102.34873155 162.86599573 111.94562005 165.84664917 126.81921387 C166.40361002 130.7768887 166.4716007 134.66262926 166.46925354 138.64959717 C166.47429146 139.89036766 166.47429146 139.89036766 166.47943115 141.15620422 C166.48891487 143.88806678 166.49088451 146.61986761 166.49195862 149.35174561 C166.49517839 151.27628605 166.49854299 153.20082626 166.50204468 155.12536621 C166.50803339 159.17039555 166.50988538 163.21540356 166.5092926 167.26043701 C166.50921203 171.35846435 166.51604126 175.4563783 166.52980042 179.55438232 C166.71206141 234.69782404 166.71206141 234.69782404 162.13648987 259.77362061 C161.92290833 260.96995117 161.70932678 262.16628174 161.48927307 263.39886475 C148.96198149 330.60927173 111.3109115 396.5869425 56.32398987 438.21112061 C55.16190236 439.12438308 54.00049165 440.03850714 52.83961487 440.95330811 C29.57923631 459.06890489 3.52191661 472.46472113 -23.56248474 483.84783936 C-24.77557312 484.35959717 -25.9886615 484.87135498 -27.23851013 485.39862061 C-28.95554138 486.11985107 -28.95554138 486.11985107 -30.70726013 486.85565186 C-33.11382923 487.95444064 -35.0868357 489.08311273 -37.23851013 490.58612061 C-43.82529484 493.69987337 -50.70279358 493.3360701 -57.54124451 491.01190186 C-61.74912329 489.42259963 -65.83516342 487.57694055 -69.92601013 485.71112061 C-71.40204902 485.05720388 -72.87886298 484.40503398 -74.35643005 483.75457764 C-77.87649258 482.19821324 -81.38344767 480.61471363 -84.88664246 479.02081299 C-87.21501777 477.96721859 -89.55623195 476.94394814 -91.89866638 475.92205811 C-130.50722169 458.79754501 -168.16025556 428.81610897 -193.67601013 395.21112061 C-194.60271489 394.02462691 -195.52982668 392.83845105 -196.45726013 391.65252686 C-204.23322825 381.60450023 -211.1446263 371.10427803 -217.67601013 360.21112061 C-218.33729919 359.10945557 -218.33729919 359.10945557 -219.01194763 357.98553467 C-235.45935747 330.26168097 -246.73360884 298.86631737 -252.67601013 267.21112061 C-252.82618591 266.4283374 -252.97636169 265.6455542 -253.13108826 264.83905029 C-258.24889882 237.54023563 -258.02470794 209.91217404 -257.99168396 182.25042725 C-257.98583666 176.92631056 -258.0029966 171.60253585 -258.02602863 166.27847576 C-258.04081165 162.12866736 -258.04163258 157.97894116 -258.03851891 153.8291111 C-258.03902764 151.86572391 -258.04417985 149.90233158 -258.05433083 147.93897057 C-258.1303039 131.23039971 -256.88975802 115.57313107 -245.2028656 102.54998779 C-239.24499196 97.03535693 -232.15182347 92.86978575 -225.36351013 88.46112061 C-223.63972166 87.3293731 -221.91675539 86.19637239 -220.19456482 85.06219482 C-216.56482154 82.67280224 -212.93164822 80.28874625 -209.2966156 77.90740967 C-203.65340324 74.20390185 -198.03848091 70.45901957 -192.42991638 66.70330811 C-191.50623764 66.08512207 -190.5825589 65.46693604 -189.63088989 64.83001709 C-186.03170514 62.42078724 -182.4328562 60.0110596 -178.83528137 57.59942627 C-169.14088802 51.1051001 -159.39032462 44.72761408 -149.5057373 38.52626038 C-142.69304284 34.24460175 -135.98623246 29.81895874 -129.30867004 25.33026123 C-125.82138804 22.98771638 -122.32620507 20.6569918 -118.83226013 18.32440186 C-118.10012802 17.83541412 -117.36799591 17.34642639 -116.61367798 16.84262085 C-108.36986169 11.33708703 -100.12354597 5.8355198 -91.85707092 0.36404419 C-90.21526427 -0.72427134 -88.57506146 -1.81501087 -86.93659973 -2.90835571 C-53.14469929 -25.45036295 -32.91105418 -21.97938729 0 0 Z M-7.61741638 37.76971436 C-8.30029221 38.23345963 -8.98316803 38.6972049 -9.68673706 39.17500305 C-11.13148253 40.15730694 -12.57472695 41.14182158 -14.0165863 42.12835693 C-16.23010576 43.64287025 -18.44771509 45.15122373 -20.66624451 46.65838623 C-22.066877 47.61180706 -23.46727563 48.56557155 -24.86741638 49.51971436 C-25.53406815 49.97390244 -26.20071991 50.42809052 -26.88757324 50.89604187 C-29.92159412 52.8786861 -29.92159412 52.8786861 -32.67601013 55.21112061 C-32.77401605 57.34821715 -32.79972173 59.48862628 -32.79905796 61.62796879 C-32.8002118 62.30953723 -32.80136565 62.99110567 -32.80255446 63.6933277 C-32.80522771 66.00584677 -32.80069319 68.31829796 -32.79626465 70.6308136 C-32.79670021 72.29397137 -32.79757483 73.95712907 -32.79885381 75.62028641 C-32.80110182 80.21286998 -32.79707335 84.80543046 -32.79207575 89.39801109 C-32.78777579 94.34214332 -32.78921735 99.28627414 -32.78997803 104.23040771 C-32.79050355 112.8038775 -32.78735379 121.3773397 -32.78174019 129.95080757 C-32.77362903 142.34675523 -32.77101036 154.7426992 -32.7697522 167.13864922 C-32.76756107 187.24801351 -32.76089935 207.35737375 -32.75144958 227.46673584 C-32.74227703 247.00644917 -32.73519543 266.54616141 -32.73094177 286.08587646 C-32.73067905 287.28937296 -32.73041633 288.49286945 -32.73014564 289.73283554 C-32.72884065 295.77014561 -32.72757693 301.8074557 -32.72633374 307.84476578 C-32.71595924 357.96688685 -32.69833928 408.08900353 -32.67601013 458.21112061 C-29.30038282 456.77280868 -25.92596133 455.33168852 -22.55174255 453.89007568 C-21.60051262 453.48480904 -20.64928268 453.07954239 -19.6692276 452.66199493 C-13.32727323 449.95033095 -7.07782216 447.14525785 -0.98851013 443.89862061 C-0.13386169 443.44624023 0.72078674 442.99385986 1.60133362 442.527771 C15.38525573 435.08399427 28.14444426 426.0328311 40.32398987 416.21112061 C41.30883362 415.43123779 42.29367737 414.65135498 43.30836487 413.84783936 C57.54442831 402.23135612 71.34518119 388.97869462 82.32398987 374.21112061 C83.19623739 373.06777828 84.06864448 371.92455767 84.94117737 370.78143311 C91.62889882 361.92752983 97.67380454 352.75701689 103.32398987 343.21112061 C103.76210999 342.47861084 104.2002301 341.74610107 104.65162659 340.99139404 C129.44515848 299.15398301 139.43849028 252.40625914 139.52711487 204.25018311 C139.52994225 203.2095509 139.53276962 202.16891869 139.53568268 201.09675217 C139.55058171 195.60443627 139.55987342 190.11214608 139.56422424 184.61981201 C139.56973785 178.95733744 139.59385275 173.29509981 139.6221962 167.63269997 C139.6408134 163.26265767 139.64602739 158.89267306 139.64756012 154.52259445 C139.65058228 152.43422506 139.65859606 150.34585658 139.6717453 148.2575264 C139.68880857 145.34294581 139.68692638 142.42895359 139.68043518 139.51434326 C139.69425735 138.22847321 139.69425735 138.22847321 139.70835876 136.91662598 C139.66492167 130.68737019 138.34599834 126.58455833 134.21974182 121.7411499 C130.36698585 118.37498262 126.24292491 115.56846691 121.99195862 112.73065186 C121.0825502 112.11775803 120.17314178 111.5048642 119.23617554 110.87339783 C117.31060566 109.57731328 115.38320916 108.28393891 113.45411682 106.99310303 C110.55558312 105.05313195 107.66296207 103.10460874 104.77125549 101.15447998 C95.87691138 95.17066253 86.9460338 89.27509805 77.82719421 83.63867188 C72.00742032 80.03739771 66.31283586 76.26960925 60.63417053 72.4487915 C57.47942304 70.32748438 54.3173109 68.21719147 51.15602112 66.10565186 C50.47385529 65.64983734 49.79168945 65.19402283 49.08885193 64.72439575 C40.36407257 58.89749175 31.62284619 53.09550406 22.87010193 47.31069946 C21.00725622 46.07845985 19.14553847 44.84451331 17.28495789 43.6088562 C14.6706099 41.8729661 12.05249506 40.14290888 9.43336487 38.41424561 C8.24640266 37.62354927 8.24640266 37.62354927 7.03546143 36.81687927 C6.3105098 36.34015274 5.58555817 35.86342621 4.83863831 35.37225342 C4.20520508 34.95292542 3.57177185 34.53359741 2.91914368 34.1015625 C-1.14764842 31.83141022 -4.29535591 35.4893922 -7.61741638 37.76971436 Z M-63.47679138 74.69158936 C-64.32926453 75.26377197 -65.18173767 75.83595459 -66.06004333 76.42547607 C-67.02643738 77.07661377 -67.99283142 77.72775146 -68.98851013 78.39862061 C-71.1752275 79.864651 -73.36253811 81.32974625 -75.55101013 82.79315186 C-76.4699279 83.40773254 -76.4699279 83.40773254 -77.40740967 84.034729 C-85.77900209 89.62589409 -94.19385793 95.1516142 -102.60301208 100.68603516 C-105.49104929 102.58779263 -108.37771119 104.49161903 -111.26390076 106.3961792 C-127.22814863 116.92947726 -127.22814863 116.92947726 -134.277771 121.50646973 C-136.78760828 123.1374881 -139.29185075 124.77695109 -141.79499817 126.41821289 C-143.42344559 127.48115096 -145.05995423 128.53170779 -146.69676208 129.58172607 C-156.92896682 136.30790971 -164.00308939 144.00812393 -166.67601013 156.21112061 C-166.77604854 159.12508874 -166.82286785 162.015119 -166.8212738 164.92913818 C-166.82463242 165.80961319 -166.82799103 166.6900882 -166.83145142 167.59724426 C-166.84096713 170.51672778 -166.84290624 173.43615377 -166.84397888 176.35565186 C-166.84719599 178.4023389 -166.8505604 180.44902571 -166.85406494 182.49571228 C-166.86006124 186.80067475 -166.86190482 191.10561715 -166.86131287 195.4105835 C-166.86121235 200.86081501 -166.8747465 206.31091299 -166.89208508 211.76111317 C-166.90335743 216.00061094 -166.90522732 220.24007826 -166.90470314 224.47958946 C-166.90586503 226.4841221 -166.91018287 228.48865601 -166.91803551 230.4931736 C-166.98223883 248.60830273 -166.23528845 266.85936339 -162.92601013 284.71112061 C-162.75682068 285.64504639 -162.58763123 286.57897217 -162.41331482 287.54119873 C-150.40513078 351.3146806 -116.65967464 411.47146906 -65.67601013 452.21112061 C-64.4645189 453.22820424 -63.25548045 454.2482322 -62.05101013 455.27362061 C-60.05770762 457.31647506 -60.05770762 457.31647506 -58.67601013 457.21112061 C-58.67601013 330.16112061 -58.67601013 203.11112061 -58.67601013 72.21112061 C-60.52287506 72.21112061 -61.99451116 73.69185029 -63.47679138 74.69158936 Z " fill="#0635C9" transform="translate(301.67601013183594,19.78887939453125)"/>
<path d="M0 0 C0.25572238 7.81452997 0.45073343 15.62806773 0.56993389 23.44573975 C0.62717234 27.07682807 0.70467407 30.70504023 0.82983398 34.33447266 C0.95004154 37.84255794 1.01525501 41.34789299 1.04364967 44.85787964 C1.07364664 46.83724918 1.15942414 48.8155216 1.2462616 50.79321289 C1.25228555 59.64352743 1.25228555 59.64352743 -2.34024048 63.53494263 C-5.1437418 65.59863806 -7.95286475 67.32217521 -11 69 C-12.73041682 70.11241285 -14.45541537 71.23335723 -16.171875 72.3671875 C-18.02989679 73.53860745 -19.88935405 74.70775267 -21.75 75.875 C-37.43056822 85.81088873 -52.83111967 96.16517265 -68.25187683 106.49772644 C-72.80048044 109.54165206 -77.36605102 112.55552951 -81.95703125 115.53515625 C-82.92995117 116.1698584 -83.90287109 116.80456055 -84.90527344 117.45849609 C-86.59423769 118.55747118 -88.28836726 119.64857906 -89.98925781 120.72900391 C-96.26202041 124.82785787 -101.43281423 129.6214869 -104.3125 136.6875 C-104.61800781 137.41324219 -104.92351562 138.13898438 -105.23828125 138.88671875 C-107.02592265 143.8462777 -107.14812985 148.47845387 -107.14526367 153.71801758 C-107.14862228 154.59849258 -107.1519809 155.47896759 -107.15544128 156.38612366 C-107.164957 159.30560718 -107.16689611 162.22503316 -107.16796875 165.14453125 C-107.17118586 167.19121829 -107.17455027 169.23790511 -107.17805481 171.28459167 C-107.18405111 175.58955414 -107.18589469 179.89449654 -107.18530273 184.19946289 C-107.18520222 189.64969441 -107.19873637 195.09979238 -107.21607494 200.54999256 C-107.2273473 204.78949033 -107.22921719 209.02895766 -107.22869301 213.26846886 C-107.2298549 215.27300149 -107.23417274 217.2775354 -107.24202538 219.28205299 C-107.3062287 237.39718213 -106.55927831 255.64824279 -103.25 273.5 C-103.08081055 274.43392578 -102.91162109 275.36785156 -102.73730469 276.33007812 C-91.14011513 337.92083619 -58.97942142 398.22292666 -9.6328125 437.87890625 C-6.35870226 440.51665382 -3.17700754 443.24659347 0 446 C-0.33 447.32 -0.66 448.64 -1 450 C-27.47463211 439.18070845 -51.76638863 426.09117491 -74 408 C-74.5347998 407.56816406 -75.06959961 407.13632812 -75.62060547 406.69140625 C-90.01120554 394.98552467 -103.83214653 381.83867834 -115 367 C-115.4935498 366.36642578 -115.98709961 365.73285156 -116.49560547 365.08007812 C-156.07280795 314.27008874 -173.21991427 253.94738666 -173.37109375 190.17578125 C-173.380096 188.1670883 -173.38921825 186.15839588 -173.39845276 184.14970398 C-173.41475304 179.98593535 -173.4226103 175.82224543 -173.42553711 171.65844727 C-173.43096742 166.3450431 -173.4689186 161.03238228 -173.51428127 155.71918964 C-173.54408659 151.59003495 -173.55126109 147.46106099 -173.55226326 143.33180809 C-173.55644194 141.3723216 -173.5687805 139.41283338 -173.58978081 137.45345497 C-173.79020854 117.18087456 -173.79020854 117.18087456 -168 110 C-165.37768555 107.52270508 -165.37768555 107.52270508 -162.44921875 105.70703125 C-161.61930672 105.17502861 -161.61930672 105.17502861 -160.77262878 104.63227844 C-159.53646194 103.84035433 -158.29417078 103.05793152 -157.04681396 102.28375244 C-154.02252229 100.38693041 -151.05886702 98.4014097 -148.08634949 96.42478943 C-144.6037865 94.1120848 -141.10790238 91.81985591 -137.61300659 89.52584839 C-124.86351559 81.15664608 -112.12632266 72.76956574 -99.4453125 64.296875 C-98.51416122 63.67484695 -97.58300995 63.05281891 -96.62364197 62.41194153 C-92.20402476 59.45828482 -87.78677761 56.50114846 -83.37231445 53.53979492 C-74.6811316 47.7195972 -65.92757561 42.0263859 -57.06552124 36.46977234 C-48.45635819 31.05806172 -40.00807433 25.41230184 -31.5625 19.75 C-30.01642596 18.71592165 -28.4702021 17.68206727 -26.92382812 16.6484375 C-26.16750092 16.14268188 -25.41117371 15.63692627 -24.63192749 15.11584473 C-23.14952089 14.12464206 -21.66696079 13.13366891 -20.18423462 12.14294434 C-16.88289656 9.93559696 -13.58633861 7.72214156 -10.30419922 5.48632812 C-8.68215576 4.38708008 -8.68215576 4.38708008 -7.02734375 3.265625 C-5.62923462 2.31091309 -5.62923462 2.31091309 -4.20288086 1.33691406 C-2 0 -2 0 0 0 Z " fill="#D3E0F3" transform="translate(243,31)"/>
<path d="M0 0 C0.83273437 -0.02191406 1.66546875 -0.04382813 2.5234375 -0.06640625 C11.84687575 1.8241146 19.92350925 8.17440249 27.6953125 13.41040039 C29.51303959 14.63377597 31.33802787 15.84570932 33.1640625 17.05664062 C34.33638087 17.84048314 35.50827172 18.62496551 36.6796875 19.41015625 C37.72624512 20.11148682 38.77280273 20.81281738 39.85107422 21.53540039 C42.3755778 23.38022993 44.49315335 25.28394906 46.625 27.5625 C45.23440305 28.61114688 43.83680216 29.65049778 42.4375 30.6875 C41.48362491 31.42958143 40.52974981 32.17166286 39.54696941 32.93623161 C36.64475559 35.03900195 33.76827566 36.39278214 30.4530077 37.74139595 C24.08653326 40.62038854 18.73946049 43.79104566 14.625 49.5625 C10.82957274 60.89099616 11.86014409 73.55453301 12.10307896 85.34278655 C12.181847 90.29026381 12.13845661 95.23690795 12.11032104 100.1847229 C12.07816729 108.74500697 12.12244484 117.30211619 12.21947289 125.86187363 C12.35963831 138.23704622 12.38324217 150.61031288 12.37891344 162.98617865 C12.37503215 183.06686166 12.46467939 203.14598506 12.61352539 223.22607422 C12.75786566 242.72545436 12.85792002 262.22423744 12.89868164 281.72412109 C12.90121184 282.92718918 12.90374204 284.13025726 12.90634891 285.36978196 C12.91877054 291.40555659 12.93032431 297.44133252 12.94144666 303.47710967 C13.03475941 353.50647762 13.28001955 403.5342778 13.625 453.5625 C11.42406488 454.60266797 9.21661931 455.61927031 7 456.625 C6.07380859 457.06682617 6.07380859 457.06682617 5.12890625 457.51757812 C0.83237463 459.43971069 -1.86517559 459.91061105 -6.375 458.5625 C-9.345 457.0775 -9.345 457.0775 -12.375 455.5625 C-12.705 306.7325 -13.035 157.9025 -13.375 4.5625 C-4.23696319 -0.0065184 -4.23696319 -0.0065184 0 0 Z " fill="#1AE4BE" transform="translate(255.375,25.4375)"/>
<path d="M0 0 C4.20376073 1.68150429 7.66550766 3.55802884 11.39453125 6.02734375 C12.28285896 6.61171959 12.28285896 6.61171959 13.18913269 7.207901 C14.43199977 8.02830678 15.67321259 8.85122363 16.9128418 9.67651367 C18.81705413 10.94052302 20.73136999 12.18813652 22.64648438 13.43554688 C23.85481791 14.23599694 25.06252329 15.03739623 26.26953125 15.83984375 C27.36885986 16.56550537 28.46818848 17.29116699 29.60083008 18.03881836 C30.39255615 18.6860083 31.18428223 19.33319824 32 20 C32 20.99 32 21.98 32 23 C29.78768211 24.77332806 27.61507493 26.33395014 25.25390625 27.88671875 C24.56820053 28.34859085 23.88249481 28.81046295 23.17601013 29.28633118 C20.97783283 30.76308971 18.77021162 32.22504392 16.5625 33.6875 C15.07687544 34.68465574 13.59184128 35.68269171 12.10742188 36.68164062 C10.69844095 37.62578288 9.28895255 38.56916835 7.87890625 39.51171875 C6.86951744 40.18662605 6.86951744 40.18662605 5.83973694 40.87516785 C1.11872092 44 1.11872092 44 0 44 C0 29.48 0 14.96 0 0 Z " fill="#D2DFF3" transform="translate(269,31)"/>
</svg>
