<?xml version="1.0" encoding="UTF-8"?>
<svg version="1.1" xmlns="http://www.w3.org/2000/svg" width="128" height="128">
<path d="M0 0 C42.24 0 84.48 0 128 0 C128 42.24 128 84.48 128 128 C85.76 128 43.52 128 0 128 C0 85.76 0 43.52 0 0 Z " fill="#3F77F0" transform="translate(0,0)"/>
<path d="M0 0 C31.68 0 63.36 0 96 0 C96.04125 10.18875 96.0825 20.3775 96.125 30.875 C96.14320801 34.09362793 96.16141602 37.31225586 96.18017578 40.62841797 C96.18601444 43.16633945 96.19111147 45.70426278 96.1953125 48.2421875 C96.20053925 48.9038089 96.20576599 49.5654303 96.21115112 50.24710083 C96.22574825 52.19186732 96.22667728 54.13672174 96.22705078 56.08154297 C96.231492 57.17852509 96.23593323 58.2755072 96.24050903 59.4057312 C96 62 96 62 94 64 C91.0884779 64.19878648 88.27204967 64.27266289 85.359375 64.25878906 C84.01776306 64.26404602 84.01776306 64.26404602 82.64904785 64.26940918 C79.6826204 64.27823594 76.71643002 64.27237401 73.75 64.265625 C71.69498651 64.26697138 69.63997333 64.26891168 67.58496094 64.27142334 C63.27405775 64.27437588 58.96323733 64.27007276 54.65234375 64.26074219 C49.11701876 64.24934761 43.5818877 64.25590638 38.04656982 64.26788712 C33.80190562 64.27510219 29.55728765 64.27281941 25.31262207 64.26763153 C23.27119931 64.26629406 21.2297724 64.26794615 19.18835449 64.27259064 C16.33899763 64.27765007 13.48995812 64.26995386 10.640625 64.25878906 C9.7906897 64.26283752 8.94075439 64.26688599 8.06506348 64.27105713 C2.22852785 64.22852785 2.22852785 64.22852785 0 62 C-0.24050903 59.4057312 -0.24050903 59.4057312 -0.22705078 56.08154297 C-0.22680908 54.82301514 -0.22656738 53.5644873 -0.22631836 52.26782227 C-0.2162464 50.92594201 -0.20591319 49.58406368 -0.1953125 48.2421875 C-0.19329834 47.02539307 -0.19128418 45.80859863 -0.18920898 44.55493164 C-0.17871837 39.99491627 -0.15079599 35.43495448 -0.125 30.875 C-0.08375 20.68625 -0.0425 10.4975 0 0 Z " fill="#FDFEFD" transform="translate(16,46)"/>
<path d="M0 0 C42.24 0 84.48 0 128 0 C128 42.24 128 84.48 128 128 C85.76 128 43.52 128 0 128 C0 85.76 0 43.52 0 0 Z M30 6 C27.65026182 7.89755144 27.65026182 7.89755144 27.875 11.125 C27.91625 12.07375 27.9575 13.0225 28 14 C27.20335938 13.94199219 26.40671875 13.88398438 25.5859375 13.82421875 C18.520835 13.31854809 18.520835 13.31854809 12.375 16.25 C8.09550744 21.20520191 7.6990376 24.88890769 7.69360352 31.34521484 C7.68528 32.18472183 7.67695648 33.02422882 7.66838074 33.88917542 C7.64429437 36.66314335 7.6355105 39.4368761 7.62890625 42.2109375 C7.6199392 44.141409 7.61081734 46.07187979 7.60154724 48.00234985 C7.58505862 52.04910979 7.5773573 56.095787 7.57446289 60.14257812 C7.56907787 65.32348056 7.53139227 70.50360376 7.48571873 75.68428612 C7.45595102 79.67177153 7.4487394 83.65906917 7.44773674 87.64665604 C7.44353422 89.55641882 7.43109863 91.46618215 7.41021919 93.37583542 C7.38330924 96.04980256 7.38812846 98.72196189 7.40063477 101.39599609 C7.38580048 102.18165451 7.37096619 102.96731293 7.35568237 103.77677917 C7.40775215 107.69388171 7.79639741 110.26245691 10.22496033 113.41275024 C15.49488199 118.32605064 20.05748135 118.29215012 26.93359375 118.25878906 C27.82362091 118.2622937 28.71364807 118.26579834 29.63064575 118.26940918 C32.56634368 118.27819614 35.50179971 118.27238802 38.4375 118.265625 C40.48103888 118.26697252 42.52457745 118.26891378 44.56811523 118.27142334 C48.84850114 118.27437049 53.1288035 118.27009006 57.40917969 118.26074219 C62.89367828 118.24934794 68.37798112 118.25590959 73.86247253 118.26788712 C78.08151726 118.27511671 82.30051564 118.27281271 86.51956177 118.26763153 C88.54175846 118.26629808 90.56395936 118.26793208 92.58615112 118.27259064 C95.41301612 118.27767387 98.23956479 118.26992025 101.06640625 118.25878906 C101.90084259 118.26283752 102.73527893 118.26688599 103.59500122 118.27105713 C107.81649185 118.24028785 111.20353975 118.07149453 115 116 C119.78517635 110.81605896 120.15588538 106.66652844 120.19287109 99.86010742 C120.20104858 99.03050003 120.20922607 98.20089264 120.21765137 97.34614563 C120.24247462 94.59926065 120.25901282 91.85242721 120.2734375 89.10546875 C120.28142302 87.69762839 120.28142302 87.69762839 120.28956985 86.26134682 C120.3162871 81.29427533 120.33566724 76.32722886 120.35009766 71.36010742 C120.36344289 67.2501808 120.39130823 63.14074997 120.43212891 59.03100586 C120.48143104 54.06729883 120.50621558 49.10404191 120.51332474 44.14010048 C120.5200387 42.24986165 120.53526456 40.35963292 120.55921555 38.46953392 C120.59085444 35.8218492 120.59090621 33.17590049 120.58349609 30.52807617 C120.59990143 29.75019745 120.61630676 28.97231873 120.63320923 28.17086792 C120.56793248 22.46179941 119.07495152 20.00079845 115 16 C110.45734121 13.14461448 105.18552419 13.81875838 100 14 C100.04125 13.05125 100.0825 12.1025 100.125 11.125 C100.34973818 7.89755144 100.34973818 7.89755144 98 6 C94.69316534 6.28983269 94.69316534 6.28983269 92 8 C92 9.98 92 11.96 92 14 C73.52 14 55.04 14 36 14 C36 12.02 36 10.04 36 8 C35.34 7.34 34.68 6.68 34 6 C32.68 6 31.36 6 30 6 Z " fill="#FEFEFE" transform="translate(0,0)"/>
<path d="M0 0 C0.90492187 0.02320312 1.80984375 0.04640625 2.7421875 0.0703125 C4.10730469 0.09738281 4.10730469 0.09738281 5.5 0.125 C6.19867188 0.14820312 6.89734375 0.17140625 7.6171875 0.1953125 C8.2771875 2.5053125 8.9371875 4.8153125 9.6171875 7.1953125 C11.2671875 6.8653125 12.9171875 6.5353125 14.6171875 6.1953125 C14.9471875 4.2153125 15.2771875 2.2353125 15.6171875 0.1953125 C34.0971875 0.1953125 52.5771875 0.1953125 71.6171875 0.1953125 C72.6071875 3.6603125 72.6071875 3.6603125 73.6171875 7.1953125 C76.0921875 6.7003125 76.0921875 6.7003125 78.6171875 6.1953125 C78.9471875 4.2153125 79.2771875 2.2353125 79.6171875 0.1953125 C81.24182592 0.14135772 82.86697291 0.10254055 84.4921875 0.0703125 C85.84957031 0.03550781 85.84957031 0.03550781 87.234375 0 C89.6171875 0.1953125 89.6171875 0.1953125 91.6171875 2.1953125 C91.6171875 6.8153125 91.6171875 11.4353125 91.6171875 16.1953125 C59.9371875 16.1953125 28.2571875 16.1953125 -4.3828125 16.1953125 C-4.3828125 0.35924693 -4.3828125 0.35924693 0 0 Z " fill="#FDFEFD" transform="translate(20.3828125,21.8046875)"/>
<path d="M0 0 C1.80868813 0.00333092 1.80868813 0.00333092 3.65391541 0.00672913 C4.64899864 0.00651009 4.64899864 0.00651009 5.66418457 0.00628662 C7.86644207 0.00698571 10.06861596 0.01477787 12.27085876 0.02259827 C13.79400588 0.02446246 15.31715359 0.02588636 16.84030151 0.02688599 C20.85657903 0.03071105 24.87282059 0.04054124 28.88908386 0.05158997 C32.98443617 0.06180433 37.07979427 0.06638366 41.17515564 0.07142639 C49.21618779 0.08216352 57.25719069 0.0992398 65.29820251 0.12025452 C65.68039019 1.77640109 66.01215353 3.44482476 66.29820251 5.12025452 C65.29820251 6.12025452 65.29820251 6.12025452 62.59640503 6.24050903 C61.39061295 6.23828842 60.18482086 6.23606781 58.94248962 6.23377991 C58.2791008 6.23392593 57.61571198 6.23407196 56.93222046 6.23422241 C54.72996296 6.23352332 52.52778907 6.22573116 50.32554626 6.21791077 C48.80239915 6.21604657 47.27925144 6.21462268 45.75610352 6.21362305 C41.739826 6.20979798 37.72358444 6.1999678 33.70732117 6.18891907 C29.61196886 6.17870471 25.51661076 6.17412537 21.42124939 6.16908264 C13.38021724 6.15834551 5.33921434 6.14126923 -2.70179749 6.12025452 C-3.08398516 4.46410794 -3.4157485 2.79568427 -3.70179749 1.12025452 C-2.70179749 0.12025452 -2.70179749 0.12025452 0 0 Z " fill="#82C595" transform="translate(33.70179748535156,95.87974548339844)"/>
<path d="M0 0 C1.80868813 0.00333092 1.80868813 0.00333092 3.65391541 0.00672913 C4.64899864 0.00651009 4.64899864 0.00651009 5.66418457 0.00628662 C7.86644207 0.00698571 10.06861596 0.01477787 12.27085876 0.02259827 C13.79400588 0.02446246 15.31715359 0.02588636 16.84030151 0.02688599 C20.85657903 0.03071105 24.87282059 0.04054124 28.88908386 0.05158997 C32.98443617 0.06180433 37.07979427 0.06638366 41.17515564 0.07142639 C49.21618779 0.08216352 57.25719069 0.0992398 65.29820251 0.12025452 C65.68039019 1.77640109 66.01215353 3.44482476 66.29820251 5.12025452 C65.29820251 6.12025452 65.29820251 6.12025452 62.59640503 6.24050903 C61.39061295 6.23828842 60.18482086 6.23606781 58.94248962 6.23377991 C58.2791008 6.23392593 57.61571198 6.23407196 56.93222046 6.23422241 C54.72996296 6.23352332 52.52778907 6.22573116 50.32554626 6.21791077 C48.80239915 6.21604657 47.27925144 6.21462268 45.75610352 6.21362305 C41.739826 6.20979798 37.72358444 6.1999678 33.70732117 6.18891907 C29.61196886 6.17870471 25.51661076 6.17412537 21.42124939 6.16908264 C13.38021724 6.15834551 5.33921434 6.14126923 -2.70179749 6.12025452 C-3.08398516 4.46410794 -3.4157485 2.79568427 -3.70179749 1.12025452 C-2.70179749 0.12025452 -2.70179749 0.12025452 0 0 Z " fill="#82C595" transform="translate(33.70179748535156,81.87974548339844)"/>
<path d="M0 0 C1.80868813 0.00333092 1.80868813 0.00333092 3.65391541 0.00672913 C4.64899864 0.00651009 4.64899864 0.00651009 5.66418457 0.00628662 C7.86644207 0.00698571 10.06861596 0.01477787 12.27085876 0.02259827 C13.79400588 0.02446246 15.31715359 0.02588636 16.84030151 0.02688599 C20.85657903 0.03071105 24.87282059 0.04054124 28.88908386 0.05158997 C32.98443617 0.06180433 37.07979427 0.06638366 41.17515564 0.07142639 C49.21618779 0.08216352 57.25719069 0.0992398 65.29820251 0.12025452 C65.68039019 1.77640109 66.01215353 3.44482476 66.29820251 5.12025452 C65.29820251 6.12025452 65.29820251 6.12025452 62.59640503 6.24050903 C61.39061295 6.23828842 60.18482086 6.23606781 58.94248962 6.23377991 C58.2791008 6.23392593 57.61571198 6.23407196 56.93222046 6.23422241 C54.72996296 6.23352332 52.52778907 6.22573116 50.32554626 6.21791077 C48.80239915 6.21604657 47.27925144 6.21462268 45.75610352 6.21362305 C41.739826 6.20979798 37.72358444 6.1999678 33.70732117 6.18891907 C29.61196886 6.17870471 25.51661076 6.17412537 21.42124939 6.16908264 C13.38021724 6.15834551 5.33921434 6.14126923 -2.70179749 6.12025452 C-3.08398516 4.46410794 -3.4157485 2.79568427 -3.70179749 1.12025452 C-2.70179749 0.12025452 -2.70179749 0.12025452 0 0 Z " fill="#34884C" transform="translate(33.70179748535156,67.87974548339844)"/>
<path d="M0 0 C1.80868813 0.00333092 1.80868813 0.00333092 3.65391541 0.00672913 C4.64899864 0.00651009 4.64899864 0.00651009 5.66418457 0.00628662 C7.86644207 0.00698571 10.06861596 0.01477787 12.27085876 0.02259827 C13.79400588 0.02446246 15.31715359 0.02588636 16.84030151 0.02688599 C20.85657903 0.03071105 24.87282059 0.04054124 28.88908386 0.05158997 C32.98443617 0.06180433 37.07979427 0.06638366 41.17515564 0.07142639 C49.21618779 0.08216352 57.25719069 0.0992398 65.29820251 0.12025452 C65.68039019 1.77640109 66.01215353 3.44482476 66.29820251 5.12025452 C65.29820251 6.12025452 65.29820251 6.12025452 62.59640503 6.24050903 C61.39061295 6.23828842 60.18482086 6.23606781 58.94248962 6.23377991 C58.2791008 6.23392593 57.61571198 6.23407196 56.93222046 6.23422241 C54.72996296 6.23352332 52.52778907 6.22573116 50.32554626 6.21791077 C48.80239915 6.21604657 47.27925144 6.21462268 45.75610352 6.21362305 C41.739826 6.20979798 37.72358444 6.1999678 33.70732117 6.18891907 C29.61196886 6.17870471 25.51661076 6.17412537 21.42124939 6.16908264 C13.38021724 6.15834551 5.33921434 6.14126923 -2.70179749 6.12025452 C-3.08398516 4.46410794 -3.4157485 2.79568427 -3.70179749 1.12025452 C-2.70179749 0.12025452 -2.70179749 0.12025452 0 0 Z " fill="#34884C" transform="translate(33.70179748535156,53.87974548339844)"/>
<path d="M0 0 C8.58 0 17.16 0 26 0 C26.33 1.65 26.66 3.3 27 5 C26 6 26 6 23.49975586 6.11352539 C22.41573486 6.10828857 21.33171387 6.10305176 20.21484375 6.09765625 C19.04501953 6.09443359 17.87519531 6.09121094 16.66992188 6.08789062 C14.82237305 6.07532227 14.82237305 6.07532227 12.9375 6.0625 C11.08415039 6.05573242 11.08415039 6.05573242 9.19335938 6.04882812 C6.12885883 6.03699608 3.06445279 6.02051173 0 6 C0 4.02 0 2.04 0 0 Z " fill="#81C494" transform="translate(73,68)"/>
<path d="M0 0 C1.67542976 0.28604898 3.34385343 0.61781233 5 1 C5.33 2.32 5.66 3.64 6 5 C3.36 5 0.72 5 -2 5 C-1.125 1.125 -1.125 1.125 0 0 Z " fill="#4D7DEF" transform="translate(94,6)"/>
<path d="M0 0 C1.67542976 0.28604898 3.34385343 0.61781233 5 1 C5.33 2.32 5.66 3.64 6 5 C3.36 5 0.72 5 -2 5 C-1.125 1.125 -1.125 1.125 0 0 Z " fill="#4D7DEF" transform="translate(30,6)"/>
<path d="M0 0 C1.32 0.33 2.64 0.66 4 1 C3.67 2.65 3.34 4.3 3 6 C1.5 4.6875 1.5 4.6875 0 3 C0 2.01 0 1.02 0 0 Z " fill="#428E58" transform="translate(96,54)"/>
<path d="M0 0 C2 1.75 2 1.75 4 4 C4 5.32 4 6.64 4 8 C3.34 8 2.68 8 2 8 C2 6.68 2 5.36 2 4 C1.34 4 0.68 4 0 4 C-0.33 3.01 -0.66 2.02 -1 1 C-0.67 0.67 -0.34 0.34 0 0 Z " fill="#5484EF" transform="translate(116,18)"/>
</svg>
